<?xml version="1.0" encoding="UTF-8" standalone="no"?>
<svg
   xmlns:dc="http://purl.org/dc/elements/1.1/"
   xmlns:cc="http://creativecommons.org/ns#"
   xmlns:rdf="http://www.w3.org/1999/02/22-rdf-syntax-ns#"
   xmlns:svg="http://www.w3.org/2000/svg"
   xmlns="http://www.w3.org/2000/svg"
   xmlns:sodipodi="http://sodipodi.sourceforge.net/DTD/sodipodi-0.dtd"
   xmlns:inkscape="http://www.inkscape.org/namespaces/inkscape"
   aria-hidden="true"
   focusable="false"
   data-prefix="fas"
   data-icon="running"
   class="svg-inline--fa fa-running fa-w-13"
   role="img"
   viewBox="0 0 560.31982 513.36377"
   version="1.1"
   id="svg4"
   sodipodi:docname="running-mult-solid.svg"
   inkscape:version="0.92.4 (5da689c313, 2019-01-14)"
   width="560.31982"
   height="513.36377">
  <metadata
     id="metadata10">
    <rdf:RDF>
      <cc:Work
         rdf:about="">
        <dc:format>image/svg+xml</dc:format>
        <dc:type
           rdf:resource="http://purl.org/dc/dcmitype/StillImage" />
        <dc:title></dc:title>
      </cc:Work>
    </rdf:RDF>
  </metadata>
  <defs
     id="defs8" />
  <sodipodi:namedview
     pagecolor="#ffffff"
     bordercolor="#666666"
     borderopacity="1"
     objecttolerance="10"
     gridtolerance="10"
     guidetolerance="10"
     inkscape:pageopacity="0"
     inkscape:pageshadow="2"
     inkscape:window-width="1920"
     inkscape:window-height="1017"
     id="namedview6"
     showgrid="false"
     inkscape:zoom="0.4609375"
     inkscape:cx="352.31985"
     inkscape:cy="342.75966"
     inkscape:window-x="-8"
     inkscape:window-y="-8"
     inkscape:window-maximized="1"
     inkscape:current-layer="svg4"
     fit-margin-top="0"
     fit-margin-left="0"
     fit-margin-right="0"
     fit-margin-bottom="0" />
  <path
     inkscape:connector-curvature="0"
     style="fill:#646464;fill-opacity:1;stroke-width:0.63461459"
     d="m 172.61515,60.922998 c 16.82363,0 30.4615,-13.637867 30.4615,-30.461499 C 203.07665,13.637868 189.43878,0 172.61515,0 c -16.82363,0 -30.46149,13.637868 -30.46149,30.461499 0,16.823632 13.63786,30.461499 30.46149,30.461499 z M 72.149327,201.47108 62.757031,223.37797 H 20.30767 C 9.09402,223.37797 0,232.472 0,243.68564 0,254.89927 9.09402,263.9933 20.30767,263.9933 h 49.15089 c 12.216329,0 23.214203,-7.25999 27.992848,-18.46093 l 5.578262,-13.02229 -6.771338,-3.99807 C 85.266806,222.01989 77.181822,212.41183 72.149327,201.47108 Z M 243.69199,142.1473 H 215.74991 L 199.21185,108.35409 C 191.27916,92.139677 176.71476,80.285078 160.00537,76.026823 L 114.89696,62.611069 C 96.937367,58.295692 78.235276,62.262029 63.594727,73.488367 L 38.41956,92.786985 c -8.90364,6.822108 -10.59171,19.565175 -3.75692,28.468805 6.8348,8.90365 19.57152,10.57269 28.468818,3.75692 l 25.187845,-19.29862 c 4.867494,-3.73788 11.067678,-5.07693 16.036707,-3.89654 l 9.32884,2.77328 -23.772665,55.45896 c -8.008833,18.70843 -0.831347,40.62167 16.690365,50.96589 l 53.92955,31.83862 -17.43287,55.67473 c -3.35076,10.6996 2.60827,22.09093 13.30787,25.4417 2.02442,0.63461 4.06788,0.93922 6.07961,0.93922 8.63709,0 16.64593,-5.56557 19.36843,-14.24709 l 20.07921,-64.13415 c 3.75056,-13.18094 -1.83404,-27.33919 -13.73306,-34.51668 l -38.8638,-22.93497 19.86978,-49.67764 12.86364,26.29209 c 5.07692,10.3696 15.81459,17.06478 27.35824,17.06478 h 34.26284 c 11.21364,0 20.30767,-9.09402 20.30767,-20.30766 0,-11.21364 -9.09403,-20.30133 -20.30767,-20.30133 z"
     id="path2-9-3" />
  <path
     inkscape:connector-curvature="0"
     style="fill:#323232;fill-opacity:1;stroke-width:0.80149853"
     d="m 280.34337,80.506079 c 21.24773,0 38.47193,-17.224201 38.47193,-38.471927 0,-21.247725 -17.2242,-38.4719294 -38.47193,-38.4719294 -21.24772,0 -38.47192,17.2242044 -38.47192,38.4719294 0,21.247726 17.2242,38.471927 38.47192,38.471927 z M 153.45815,258.01396 141.59597,285.68168 H 87.983733 c -14.162479,0 -25.647952,11.48548 -25.647952,25.64796 0,14.16247 11.485473,25.64795 25.647952,25.64795 h 62.076057 c 15.42885,0 29.31882,-9.16914 35.3541,-23.31559 l 7.04518,-16.44675 -8.55199,-5.04944 c -13.88196,-8.19934 -24.09305,-20.33402 -30.44893,-34.15185 z M 370.11121,183.08987 H 334.82123 L 313.93418,140.41008 C 303.91545,119.93179 285.52105,104.9598 264.4176,99.581741 L 207.44709,82.638065 C 184.76468,77.187876 161.14452,82.197241 142.65395,96.37575 l -31.79545,24.37357 c -11.245023,8.61611 -13.377009,24.7102 -4.74487,35.95522 8.63214,11.24503 24.71821,13.35297 35.95522,4.74487 l 31.81148,-24.37357 c 6.14749,-4.72082 13.97813,-6.41199 20.25387,-4.9212 l 11.78203,3.50256 -30.02414,70.04295 c -10.11491,23.62817 -1.04996,51.30391 21.07941,64.36834 l 68.11135,40.21119 -22.01717,70.31546 c -4.23191,13.51326 3.29416,27.90016 16.80743,32.13208 2.55678,0.80149 5.13761,1.18621 7.67835,1.18621 10.90839,0 21.02331,-7.02914 24.46174,-17.99364 l 25.35941,-80.99944 c 4.73685,-16.64712 -2.31633,-34.52855 -17.34443,-43.5935 l -49.08377,-28.96616 25.09492,-62.74131 16.24637,33.20609 c 6.41199,13.09649 19.97335,21.55229 34.55261,21.55229 h 43.2729 c 14.16248,0 25.64796,-11.48547 25.64796,-25.64795 0,-14.16248 -11.48548,-25.63994 -25.64796,-25.63994 z"
     id="path2-9" />
  <path
     d="m 416.31985,97.383746 c 26.51,0 48,-21.49 48,-48 0,-26.51 -21.49,-48 -48,-48 -26.51,0 -48,21.49 -48,48 0,26.51 21.49,48 48,48 z m -158.31,221.470004 -14.8,34.52 h -66.89 c -17.67,0 -32,14.33 -32,32 0,17.67 14.33,32 32,32 h 77.45 c 19.25,0 36.58,-11.44 44.11,-29.09 l 8.79,-20.52 -10.67,-6.3 c -17.32,-10.23 -30.06,-25.37 -37.99,-42.61 z m 270.31,-93.48 h -44.03 l -26.06,-53.25 c -12.5,-25.55 -35.45,-44.23 -61.78,-50.94 l -71.08,-21.14 c -28.3,-6.800004 -57.77,-0.550004 -80.84,17.14 l -39.67,30.41 c -14.03,10.75 -16.69,30.83 -5.92,44.86 10.77,14.03 30.84,16.66 44.86,5.92 l 39.69,-30.41 c 7.67,-5.89 17.44,-8 25.27,-6.14 l 14.7,4.37 -37.46,87.39 c -12.62,29.48 -1.31,64.01 26.3,80.31 l 84.98,50.17 -27.47,87.73 c -5.28,16.86 4.11,34.81 20.97,40.09 3.19,1 6.41,1.48 9.58,1.48 13.61,0 26.23,-8.77 30.52,-22.45 l 31.64,-101.06 c 5.91,-20.77 -2.89,-43.08 -21.64,-54.39 l -61.24,-36.14 31.31,-78.28 20.27,41.43 c 8,16.34 24.92,26.89 43.11,26.89 h 53.99 c 17.67,0 32,-14.33 32,-32 0,-17.67 -14.33,-31.99 -32,-31.99 z"
     id="path2"
     inkscape:connector-curvature="0"
     style="fill:currentColor" />
</svg>
